<?xml version="1.0" encoding="UTF-8" standalone="no"?>
<!-- Created with Inkscape (http://www.inkscape.org/) -->

<svg
   xmlns:dc="http://purl.org/dc/elements/1.1/"
   xmlns:cc="http://creativecommons.org/ns#"
   xmlns:rdf="http://www.w3.org/1999/02/22-rdf-syntax-ns#"
   xmlns:svg="http://www.w3.org/2000/svg"
   xmlns="http://www.w3.org/2000/svg"
   xmlns:sodipodi="http://sodipodi.sourceforge.net/DTD/sodipodi-0.dtd"
   xmlns:inkscape="http://www.inkscape.org/namespaces/inkscape"
   version="1.1"
   id="svg2"
   width="512"
   height="512"
   viewBox="0 0 512 512"
   sodipodi:docname="css.svg"
   inkscape:version="0.92.4 (5da689c313, 2019-01-14)"
   inkscape:export-filename="C:\Users\Rodrigo\Documents\svg\css.png"
   inkscape:export-xdpi="96"
   inkscape:export-ydpi="96">
  <metadata
     id="metadata8">
    <rdf:RDF>
      <cc:Work
         rdf:about="">
        <dc:format>image/svg+xml</dc:format>
        <dc:type
           rdf:resource="http://purl.org/dc/dcmitype/StillImage" />
        <dc:title></dc:title>
      </cc:Work>
    </rdf:RDF>
  </metadata>
  <defs
     id="defs6" />
  <sodipodi:namedview
     pagecolor="#ffffff"
     bordercolor="#666666"
     borderopacity="1"
     objecttolerance="10"
     gridtolerance="10"
     guidetolerance="10"
     inkscape:pageopacity="0"
     inkscape:pageshadow="2"
     inkscape:window-width="1366"
     inkscape:window-height="705"
     id="namedview4"
     showgrid="false"
     inkscape:zoom="0.4609375"
     inkscape:cx="256"
     inkscape:cy="256"
     inkscape:window-x="-8"
     inkscape:window-y="-8"
     inkscape:window-maximized="1"
     inkscape:current-layer="svg2" />
  <g
     id="g829"
     inkscape:export-xdpi="96"
     inkscape:export-ydpi="96">
    <path
       inkscape:connector-curvature="0"
       id="path817"
       d="m 193.96151,444.93071 c -32.10296,-8.70946 -58.51206,-15.97843 -58.68689,-16.15327 -0.29591,-0.2959 -27.46325,-292.77923 -27.45009,-295.52744 0.005,-0.99426 29.87584,-1.25 146.00598,-1.25 116.13014,0 146.00122,0.25574 146.00598,1.25 0.013,2.72556 -27.1529,295.23025 -27.44632,295.52368 -0.45899,0.45899 -118.70563,32.24771 -119.43936,32.10936 -0.34117,-0.0643 -26.88635,-7.24287 -58.9893,-15.95233 z m 96.76661,-56.57207 c 20.13131,-5.85275 36.96795,-10.96581 37.41476,-11.36237 0.4468,-0.39655 2.7904,-23.62044 5.20799,-51.60864 2.4176,-27.98819 4.65503,-53.02513 4.97208,-55.63763 l 0.57645,-4.75 -41.28445,-0.0405 -41.28444,-0.0404 41.96621,-17.97577 c 23.08142,-9.88666 42.29256,-18.30596 42.69143,-18.70954 0.719,-0.7275 3.84236,-27.84753 3.84236,-33.36308 V 192 h -92.11129 -92.11129 l 0.54118,3.25 c 0.29766,1.7875 1.31876,9.8875 2.26913,18 l 1.72794,14.75 h 44.4255 c 31.636,0 44.32083,0.314 44.06192,1.09072 -0.19996,0.5999 -19.36246,8.981 -42.58333,18.62466 l -42.21976,17.53394 0.10643,4.62534 c 0.0585,2.54394 0.62104,10.47534 1.25,17.62534 l 1.14357,13 62.1674,0.5 c 34.19208,0.275 62.49555,0.82848 62.89662,1.22995 0.86194,0.86281 -1.44675,43.96602 -2.40659,44.93098 -0.36159,0.36351 -9.71898,3.19085 -20.79421,6.28297 l -20.13678,5.62204 -18.86322,-4.67237 c -10.37477,-2.5698 -19.22308,-4.99199 -19.6629,-5.38265 -0.43983,-0.39066 -1.33983,-6.96543 -2,-14.6106 L 211.33051,320.5 l -18.75,-0.27207 c -10.3125,-0.14963 -18.74153,0.0754 -18.73117,0.5 0.0862,3.53351 4.88119,55.49577 5.14217,55.72444 0.24833,0.2176 72.18339,21.82649 74.73661,22.45046 0.21868,0.0534 16.86868,-4.69144 37,-10.54419 z M 166.83051,78.500004 v -27.5 h 23.03621 23.03621 l -0.28621,9.75 -0.28621,9.75 -12.75,0.27987 -12.75,0.27988 v 8.47012 8.47013 h 13 13 v 9 V 106 h -23 -23 z m 64,18.5 v -9 l 9.25,-0.0481 9.25,-0.0481 -9.25536,-8.70192 -9.25537,-8.70192 0.005,-9.75 0.005,-9.75 h 23 23 v 10 10 h -8.72915 -8.72915 l 8.72915,8.76978 8.72915,8.76978 v 8.73022 8.730216 h -23 -23 z m 64,0 v -9 l 9.25,-0.0434 9.25,-0.0434 -9.26834,-8.70657 -9.26833,-8.70657 0.0183,-9.75 0.0183,-9.75 h 23 23 v 10 10 h -8.72915 -8.72915 l 8.72915,8.76978 8.72915,8.76978 v 8.73022 8.730216 h -23 -23 z"
       style="fill:#ffffff" />
    <rect
       y="2.1694915"
       x="-2.1694915"
       height="507.66101"
       width="514.16949"
       id="rect819"
       style="opacity:1;fill:#ffffff;fill-opacity:0" />
  </g>
</svg>
