<?xml version="1.0" encoding="UTF-8" standalone="no"?>
<!-- Created with Inkscape (http://www.inkscape.org/) -->

<svg
   xmlns:dc="http://purl.org/dc/elements/1.1/"
   xmlns:cc="http://creativecommons.org/ns#"
   xmlns:rdf="http://www.w3.org/1999/02/22-rdf-syntax-ns#"
   xmlns:svg="http://www.w3.org/2000/svg"
   xmlns="http://www.w3.org/2000/svg"
   xmlns:sodipodi="http://sodipodi.sourceforge.net/DTD/sodipodi-0.dtd"
   xmlns:inkscape="http://www.inkscape.org/namespaces/inkscape"
   version="1.1"
   id="svg2"
   width="1306.7894"
   height="1293.1146"
   viewBox="0 0 1306.7894 1293.1147"
   sodipodi:docname="about.svg"
   inkscape:version="0.92.4 (5da689c313, 2019-01-14)">
  <metadata
     id="metadata8">
    <rdf:RDF>
      <cc:Work
         rdf:about="">
        <dc:format>image/svg+xml</dc:format>
        <dc:type
           rdf:resource="http://purl.org/dc/dcmitype/StillImage" />
        <dc:title></dc:title>
      </cc:Work>
    </rdf:RDF>
  </metadata>
  <defs
     id="defs6" />
  <sodipodi:namedview
     pagecolor="#ffffff"
     bordercolor="#666666"
     borderopacity="1"
     objecttolerance="10"
     gridtolerance="10"
     guidetolerance="10"
     inkscape:pageopacity="0"
     inkscape:pageshadow="2"
     inkscape:window-width="1366"
     inkscape:window-height="705"
     id="namedview4"
     showgrid="false"
     fit-margin-top="0"
     fit-margin-left="0"
     fit-margin-right="0"
     fit-margin-bottom="0"
     inkscape:zoom="0.18247424"
     inkscape:cx="653.46457"
     inkscape:cy="652.0629"
     inkscape:window-x="-8"
     inkscape:window-y="-8"
     inkscape:window-maximized="1"
     inkscape:current-layer="svg2" />
  <g
     id="g817"
     transform="translate(0.13121046,-0.13470349)"
     style="fill:#ffffff;fill-opacity:1;stroke:none;stroke-opacity:1">
    <path
       style="fill:#ffffff;fill-opacity:1;stroke:none;stroke-width:1.33333337;stroke-opacity:1"
       d="M 611.33335,1292.4798 C 464.10996,1280.6378 341.10338,1231.3827 230.66667,1140.0506 210.12526,1123.0627 167.60736,1080.604 150.50438,1060 62.294226,953.73294 12.120961,830.65831 1.3558012,694.13969 -1.5322266,657.5151 -0.12236043,604.68808 4.7934307,565.33332 35.234846,321.62594 207.10369,113.37179 443.21166,34.10022 490.87321,18.098194 538.11179,8.0361227 592.00002,2.4074995 614.14916,0.09402245 692.46074,0.09012008 714.66668,2.4013929 784.10994,9.62927 846.22702,25.057281 905.52969,49.806015 c 82.61027,34.475674 155.26021,83.698295 217.31121,147.235135 104.0912,106.58374 164.8828,236.47979 181.4096,387.62551 2.3498,21.4898 2.3498,102.51019 0,123.99999 -14.6445,133.93099 -63.0119,248.69721 -148.0671,351.33335 -15.5001,18.7039 -59.9836,63.3807 -78.1834,78.523 -103.56315,86.165 -222.00518,136.6843 -355.33331,151.561 -18.46418,2.0603 -95.02287,3.7077 -111.33334,2.3958 z m 105.33333,-159.6921 c 95.56507,-13.6476 175.99044,-47.8264 248.00001,-105.3937 90.43521,-72.29753 152.89921,-175.0813 174.55131,-287.22203 6.9122,-35.80024 8.0236,-48.75161 8.0236,-93.50532 0,-44.75371 -1.1114,-57.70508 -8.0236,-93.50532 -41.0333,-212.52039 -222.45256,-374.95445 -440.55132,-394.44837 -19.74024,-1.76442 -70.92642,-1.76442 -90.66666,0 -131.46069,11.7501 -255.80688,77.4483 -338.88349,179.0488 -60.16434,73.57938 -96.26759,158.79635 -107.99373,254.90489 -2.40064,19.67595 -2.40064,88.32405 0,108 5.014,41.09522 14.35682,79.929 27.90783,116 48.87548,130.09999 151.37705,234.09175 280.96938,285.05425 41.05323,16.1442 85.35886,27.222 126.00001,31.5038 7.7,0.8113 15.8,1.7128 18,2.0035 10.57624,1.3971 88.81789,-0.4627 102.66666,-2.4405 z M 576.00001,962.66664 v -80.02098 l 79.66667,0.34382 79.66667,0.34383 V 962.66664 1042 l -79.66667,0.3438 -79.66667,0.3438 z m 78.66667,-160.07115 c -30.43333,-0.48968 -59.47782,-0.974 -64.5433,-1.07626 l -9.20999,-0.18592 0.84412,-23 c 2.57917,-70.2753 15.94019,-134.15553 37.43916,-178.99999 17.44753,-36.39363 38.07647,-58.97427 65.90997,-72.14572 25.48054,-12.05799 35.02515,-18.19116 46.88729,-30.12885 21.02609,-21.16 27.1167,-43.12094 19.33757,-69.72543 -8.73507,-29.8738 -25.72435,-48.55269 -49.76192,-54.71082 -11.96287,-3.06475 -45.9836,-3.17475 -58.23623,-0.18831 -43.50948,10.60496 -73.18688,41.80909 -87.08574,91.5658 l -3.91069,14 -69.51945,0.34524 -69.51945,0.34522 0.80482,-5.67856 c 5.7982,-40.9103 15.46314,-74.41295 30.35934,-105.23789 17.24631,-35.68802 41.07999,-65.43441 69.53783,-86.7889 21.22378,-15.92611 53.30803,-30.20739 82.00001,-36.49965 14.62464,-3.20726 52.8244,-3.18458 78,0.0463 101.51291,13.02754 171.58004,52.23082 202.93435,113.54385 13.76681,26.92087 19.3142,52.03402 19.56943,88.59106 0.14458,20.71041 -0.18342,24.53238 -2.91779,33.99999 -13.42063,46.46799 -56.0684,94.69172 -115.59166,130.70461 -16.13485,9.76195 -24.43689,18.84819 -36.14097,39.55482 -6.69864,11.85112 -11.9116,24.26738 -15.75057,37.51489 -7.63474,26.34588 -12.06485,94.04041 -7.03892,107.55901 1.22685,3.3 2.23938,6.45 2.25006,7 0.0107,0.55 -2.5306,0.88432 -5.64727,0.74293 -3.11666,-0.1414 -30.56666,-0.65773 -61,-1.14742 z"
       id="path833"
       inkscape:connector-curvature="0" />
    <path
       style="fill:#ffffff;fill-opacity:1;stroke:none;stroke-width:1.33333337;stroke-opacity:1"
       d="m 615.33335,1292.5488 c -2.93333,-0.2817 -12.83333,-1.155 -22,-1.9407 C 429.27644,1276.547 270.81853,1196.6687 162.31647,1073.3333 71.895865,970.55128 19.411163,852.08303 3.1219066,713.99998 -0.25974837,685.3339 -0.27041775,607.7103 3.1033966,579.33332 15.837558,472.22689 49.182852,379.53567 105.99074,293.33333 208.06713,138.4389 374.33164,33.054127 558.00001,6.8326038 594.63332,1.6026288 609.27046,0.66625865 654.00002,0.69127318 702.49084,0.71839118 723.60265,2.3802229 765.16486,9.4416978 1036.2183,55.494033 1251.4093,268.69806 1297.3034,536.66665 c 7.4313,43.39047 8.6103,58.4522 8.6103,110 0,51.5478 -1.179,66.60953 -8.6103,110 -31.317,182.85515 -142.7908,344.95155 -304.29697,442.48455 -82.35823,49.7359 -173.22538,80.149 -271.67308,90.9287 -18.11113,1.9831 -92.91793,3.7255 -106,2.4689 z m 83.33333,-157.995 c 76.83975,-6.971 151.25334,-31.6398 216.00001,-71.6061 121.50671,-75.00254 205.01581,-199.07155 227.24371,-337.61439 4.6793,-29.16554 6.0805,-47.29367 6.0805,-78.66666 0,-31.40963 -1.4046,-49.54943 -6.0912,-78.66666 -7.7483,-48.13863 -23.303,-96.1477 -45.1431,-139.33333 C 984.53744,206.76966 725.97721,102.73373 489.39473,184.28468 325.54521,240.76427 202.11134,380.92256 168.09506,549.11816 c -7.43908,36.78296 -8.76172,51.50861 -8.76172,97.54849 0,33.15932 0.5114,45.78887 2.42956,60 9.90228,73.36328 32.30658,136.16053 70.74755,198.29898 31.58998,51.06411 79.17944,101.67097 130.15623,138.40887 96.44601,69.5065 216.32095,102.0366 336,91.1793 z M 576.61216,1041 c -0.35063,-0.9167 -0.4818,-36.7667 -0.29149,-79.66669 l 0.34601,-78 79,-0.34391 79.00001,-0.3439 v 80.01057 80.01053 h -78.70851 c -61.73794,0 -78.84598,-0.3593 -79.34602,-1.6666 z m 26.17927,-239.33197 -21.87524,-0.40277 0.84509,-22.38341 c 5.07859,-134.51309 45.38488,-228.96504 108.45282,-254.14346 34.07031,-13.60179 59.91624,-41.2111 64.34964,-68.73998 3.11169,-19.32191 -8.08797,-50.61647 -23.8964,-66.77226 -14.30964,-14.62407 -27.0091,-18.73176 -58.38035,-18.8834 -18.98547,-0.0917 -23.86709,0.3234 -32.95364,2.80267 -43.34439,11.82654 -72.73594,46.18108 -85.71438,100.1879 l -1.12144,4.66667 -67.91542,0.34682 c -37.35349,0.19075 -68.5799,0.0924 -69.39203,-0.21856 -3.60172,-1.37905 5.4991,-46.72715 14.96156,-74.55123 26.28296,-77.28442 74.96731,-129.86695 140.36533,-151.60449 25.33918,-8.42244 35.01661,-9.98964 60.81638,-9.8488 55.47536,0.30282 116.55756,13.84804 159.67131,35.4077 58.41014,29.20886 93.83839,74.86761 102.78704,132.46856 3.05464,19.66221 4.20278,49.0115 2.29502,58.66666 -6.2139,31.44846 -21.73846,59.08555 -49.17975,87.55072 -18.85956,19.56322 -37.79044,34.96257 -60.88815,49.52956 -10.31192,6.50339 -20.55763,14.21456 -25.33333,19.06648 -14.3161,14.54455 -27.36448,38.57007 -34.67903,63.85324 -4.60487,15.91699 -8.95007,53.57356 -9.1543,79.33333 -0.1497,18.88328 0.47306,24.16473 3.81258,32.33333 0.89945,2.20011 -1.81401,2.31632 -47.52207,2.03543 -26.6618,-0.16385 -58.31985,-0.47917 -70.35124,-0.70071 z"
       id="path831"
       inkscape:connector-curvature="0" />
    <path
       style="fill:#ffffff;fill-opacity:1;stroke:none;stroke-width:1.33333337;stroke-opacity:1"
       d="m 616.00002,1292.5133 c -133.94914,-9.3854 -251.46537,-52.0976 -355.395,-129.171 -49.00523,-36.3419 -96.84734,-84.193 -133.70682,-133.7318 -169.992738,-228.46879 -169.189109,-541.59014 1.97277,-768.66093 35.66371,-47.31304 81.34884,-92.98581 129.12904,-129.09414 68.42622,-51.710896 150.95967,-91.155242 234,-111.833175 57.43955,-14.3030639 99.37802,-19.32452114 161.33334,-19.31707407 42.50719,0.005109 59.997,1.12839247 94.66667,6.07996587 C 919.6124,31.295077 1076.1332,124.43776 1179.7685,263.72279 c 65.3165,87.78484 107.2909,190.88342 121.4372,298.2772 8.4638,64.25429 6.77,136.93189 -4.6439,199.25772 -23.7078,129.45747 -85.2872,246.34449 -179.1732,340.09779 -108.0824,107.9296 -243.64235,172.2167 -398.05525,188.7712 -17.71036,1.8988 -87.3432,3.507 -103.33333,2.3866 z m 90.45773,-158.6034 c 96.02648,-9.9854 185.26166,-47.2253 262.87561,-109.704 17.34932,-13.9661 54.38524,-51.07118 68.79104,-68.91951 25.0579,-31.04603 42.3843,-58.06256 59.8268,-93.28641 19.2031,-38.77915 32.2542,-76.593 40.6525,-117.78484 7.6873,-37.70493 8.6749,-48.81105 8.6749,-97.54849 0,-48.68647 -0.9923,-59.87435 -8.6328,-97.33333 C 1098.7622,353.79811 941.99228,201.04198 744.00002,164.79162 684.9876,153.98705 621.37075,153.99464 562.66668,164.81322 445.5819,186.39084 339.73574,249.38291 265.94807,341.39895 c -59.5679,74.28347 -95.36548,161.05633 -105.24203,255.10537 -2.3562,22.43682 -2.6989,71.34821 -0.65974,94.16232 17.22269,192.6881 149.80889,358.97586 335.28705,420.51226 43.62842,14.4746 83.14322,21.8081 136.66667,25.3637 13.17749,0.8754 54.91258,-0.6003 74.45773,-2.6327 z M 576.61216,1041 c -0.35063,-0.9167 -0.4818,-36.7667 -0.29149,-79.66669 l 0.34601,-78 79,-0.34391 79.00001,-0.3439 v 80.01057 80.01053 h -78.70851 c -61.73794,0 -78.84598,-0.3593 -79.34602,-1.6666 z m 29.51567,-239.33227 -25.20552,-0.39476 0.91118,-22.30316 c 3.55523,-87.02235 21.96133,-159.99577 51.69954,-204.96982 9.11217,-13.78063 25.83815,-31.15743 37.36915,-38.82323 5.00301,-3.326 14.49704,-8.35555 21.09784,-11.17677 33.96156,-14.51543 58.02784,-40.49788 62.59577,-67.57974 1.87186,-11.09755 -0.46,-24.73431 -6.87037,-40.17825 -7.95853,-19.17378 -18.42035,-31.46672 -33.05874,-38.84496 -9.6551,-4.86649 -17.35284,-6.43338 -36.67172,-7.46461 -35.63229,-1.90201 -64.5978,8.48129 -87.3796,31.32309 -18.36673,18.41511 -27.80468,37.18447 -38.08721,75.74447 -0.34827,1.30602 -15.31207,1.66666 -69.15296,1.66666 h -68.70851 l 0.004,-5 c 0.007,-7.1187 3.48996,-26.46081 7.98529,-44.33333 22.60908,-89.88896 76.17595,-153.95098 148.67712,-177.80689 27.41881,-9.02193 47.2523,-11.30196 78.00001,-8.96676 87.78929,6.66732 154.22713,31.67722 196.75147,74.0652 33.43473,33.32755 47.91576,69.37725 50.63049,126.04179 0.97444,20.3395 -0.61677,30.8853 -7.55217,50.05222 -14.84088,41.01476 -57.49983,85.91688 -114.53675,120.55953 -12.16708,7.38995 -20.94472,17.13911 -31.26149,34.72157 -16.13948,27.50587 -20.99238,45.31754 -25.42918,93.33333 -2.50751,27.13656 -2.01995,47.35958 1.33539,55.39002 1.13423,2.71461 2.06224,5.16237 2.06224,5.43948 0,0.5151 -69.87986,0.2148 -115.20552,-0.49508 z"
       id="path829"
       inkscape:connector-curvature="0" />
    <path
       style="fill:#ffffff;fill-opacity:1;stroke:none;stroke-width:1.33333337;stroke-opacity:1"
       d="M 610.94119,1291.9978 C 484.93044,1283.2112 370.14997,1241.9859 268.15367,1168.88 217.74955,1132.7528 164.89518,1080.6603 127.30497,1030.0616 22.698021,889.25431 -19.717119,714.88931 8.5970952,542.06377 35.213848,379.59927 125.0093,231.96117 258.00001,132.00547 404.88561,21.606378 589.64216,-21.995605 771.67434,10.779893 988.22797,49.771097 1172.6984,197.43573 1257.0758,399.33332 c 72.4575,173.37572 65.1982,370.44761 -19.7921,537.30998 -100.857,198.0134 -295.65293,330.8979 -517.95035,353.3317 -25.09568,2.5326 -85.03835,3.6512 -108.39216,2.0228 z m 97.05883,-158.0576 c 95.5962,-10.7664 182.06631,-46.5596 257.33334,-106.5198 21.43704,-17.0775 58.36584,-54.02237 75.69414,-75.72713 65.3812,-81.89419 102.5563,-180.01629 106.8391,-281.9977 5.0957,-121.33809 -31.3865,-233.38759 -106.8115,-328.05554 -17.1589,-21.5366 -54.11367,-58.48877 -75.72174,-75.71638 C 858.18693,180.49828 723.44049,142.90362 588.00001,160.64652 c -110.8182,14.51736 -212.67335,65.53287 -290.75336,145.62774 -38.34555,39.33505 -64.03635,75.49378 -88.38087,124.3924 -37.37528,75.0723 -53.95658,154.2702 -50.09246,239.25874 4.66939,102.6997 41.35421,199.60387 106.45967,281.21679 79.0449,99.08671 196.09785,164.90391 322.88416,181.55321 37.29749,4.8979 83.21384,5.3746 119.88287,1.2448 z M 577.33335,962.66664 v -80 h 78.66667 78.66667 v 80 79.99996 h -78.66667 -78.66667 z m 33,-160.99861 -29,-0.38672 v -8.33009 c 0,-41.55135 9.06372,-107.20837 20.10204,-145.6179 12.31043,-42.83607 28.73445,-73.68497 51.14709,-96.06852 14.0686,-14.05033 22.89487,-20.14984 38.78028,-26.79961 33.55283,-14.04548 58.10463,-40.24335 63.24477,-67.48498 1.4267,-7.5613 1.34489,-10.41283 -0.57112,-19.90301 -5.21659,-25.83832 -17.0774,-45.83045 -33.52096,-56.50165 -12.93474,-8.39411 -20.98515,-10.1656 -47.1821,-10.38243 -24.87779,-0.20592 -31.15368,0.79435 -48.21039,7.68386 -19.23104,7.76777 -36.49621,22.0906 -48.65363,40.36206 -10.42196,15.66326 -16.8103,30.81619 -23.08674,54.76095 l -1.48536,5.66666 h -68.61527 -68.61528 v -4.4317 c 0,-13.04867 9.92213,-55.80339 18.04569,-77.75935 29.3307,-79.27353 81.55383,-130.39514 151.64704,-148.44837 22.50562,-5.79656 33.97893,-7.12082 52.97394,-6.11433 122.15779,6.47283 209.16784,50.08435 242.09077,121.3417 11.61176,25.13212 16.62482,50.06243 16.90682,84.07872 0.17607,21.23799 -0.0435,23.42033 -3.48325,34.62407 -14.32635,46.66257 -53.46891,90.74546 -114.181,128.59225 -12.48367,7.78208 -16.71324,11.28176 -22.75826,18.83085 -13.91932,17.38261 -25.62277,40.9916 -31.16522,62.86859 -7.20733,28.44854 -10.69557,92.07693 -5.74264,104.7509 l 2.21449,5.66667 -40.94086,-0.30594 c -22.51746,-0.16826 -53.99085,-0.47997 -69.94085,-0.69268 z"
       id="path827"
       inkscape:connector-curvature="0" />
    <path
       style="fill:#ffffff;fill-opacity:1;stroke:none;stroke-width:1.33333337;stroke-opacity:1"
       d="M 622.66668,1292.4606 C 456.37261,1283.8562 304.68937,1216.8422 188.64102,1100.7073 47.161349,959.12198 -19.917193,762.84166 5.3782477,564.45717 32.747605,349.80756 168.74064,161.86921 366.00001,66.088573 437.56586,31.339278 513.34825,10.428031 596.66668,2.4388469 c 22.69719,-2.17637345 91.02242,-2.13172885 114,0.074489 C 869.18348,17.733494 1007.9419,82.493183 1118.0257,192.63116 1259.4345,334.10954 1326.6069,530.61531 1301.2609,728.66665 1285.478,851.99299 1234.4144,966.8343 1152.1565,1064 c -64.0649,75.6755 -151.6661,139.5149 -244.82314,178.4147 -88.72386,37.0486 -190.39824,54.9235 -284.66668,50.0459 z m 62.66667,-156.4929 c 91.60322,-6.3454 173.21303,-34.3861 248.66667,-85.4405 55.56818,-37.5992 104.63628,-88.53925 141.12168,-146.50532 13.271,-21.08418 34.6633,-64.56563 43.3057,-88.0219 40.368,-109.56238 40.3757,-228.78356 0.022,-338.66666 -8.5372,-23.24676 -29.9559,-66.7529 -43.3343,-88.0219 C 1040.9775,335.04 992.74637,283.82186 942.34933,248.32357 909.96426,225.51243 863.50438,200.7775 829.33335,188.15461 700.08834,140.41106 559.21248,146.59114 437.71598,205.33445 351.98773,246.78389 281.47465,309.72099 231.61042,389.29588 c -79.5819,126.99925 -95.55924,284.18338 -43.37334,426.7041 8.48974,23.18559 29.90157,66.69748 43.31486,88.0219 78.01911,124.03472 206.31986,207.33162 351.11474,227.95482 35.23998,5.0192 68.92148,6.3286 102.66667,3.991 z m -108,-173.30106 v -78.66666 h 78.66667 78.66667 v 78.66666 78.66666 h -78.66667 -78.66667 z m 36.14816,-160.99927 -32.5185,-0.38231 0.9356,-20.3092 c 4.95119,-107.47524 28.34259,-185.2999 68.48459,-227.85254 11.71342,-12.41684 21.99634,-19.57879 40.78823,-28.40859 32.22083,-15.13968 51.56599,-33.08246 60.09304,-55.73678 4.6698,-12.40652 5.38538,-20.11233 2.95775,-31.85113 -6.99292,-33.81415 -24.12067,-56.09864 -49.22468,-64.04504 -12.30088,-3.89371 -41.73798,-4.81722 -57.66419,-1.80906 -47.75308,9.01963 -79.01522,42.85371 -93.99436,101.72727 l -1.44176,5.66666 h -68.7994 -68.79941 l 0.91518,-8.93256 c 3.4888,-34.05279 17.55134,-79.57167 34.26081,-110.89847 32.89156,-61.66489 81.52556,-99.57315 145.37006,-113.31011 19.28021,-4.14838 26.7308,-4.57589 50.88564,-2.9198 106.02402,7.26923 182.98168,41.94871 221.50663,99.81769 19.73974,29.6514 28.69864,61.85338 29.18698,104.90992 0.19469,17.16689 -0.20795,21.60543 -2.84244,31.33333 -11.9544,44.14179 -47.67362,87.15648 -102.91459,123.9344 -8.43334,5.61468 -18.14575,11.82963 -21.58314,13.81097 -12.23258,7.05102 -32.35246,38.6483 -40.94981,64.30964 -10.0831,30.09604 -15.48122,98.686 -9.15124,116.27832 l 2.03895,5.66667 -37.51073,-0.3085 c -20.63088,-0.16968 -52.14402,-0.48053 -70.02921,-0.69078 z"
       id="path825"
       inkscape:connector-curvature="0" />
    <path
       style="fill:#ffffff;fill-opacity:1;stroke:none;stroke-width:1.33333337;stroke-opacity:1"
       d="M 614.00002,1291.8439 C 380.67604,1278.0874 172.07339,1141.0777 67.931288,933.18731 33.244457,863.94482 11.991525,790.67269 3.1947438,709.99998 c -3.24655087,-29.77317 -3.24655087,-96.89349 0,-126.66666 C 16.349371,462.69608 58.632243,354.75324 129.58823,260.66666 194.04082,175.2035 275.55313,109.10009 374.00001,62.4579 514.55135,-4.1325432 680.26208,-17.75858 831.86911,24.808311 1038.9851,82.960534 1204.8237,239.86229 1272.7489,441.92958 c 44.9529,133.72839 44.9529,275.74575 0,409.47414 -60.4463,179.81888 -199.3317,325.41498 -377.41554,395.65178 -88.86985,35.0506 -185.52056,50.4374 -281.33334,44.7884 z m 90.66666,-157.1559 c 141.47011,-15.0675 268.39358,-88.347 352.21952,-203.35469 40.2896,-55.27663 69.6704,-123.1629 82.9677,-191.70189 6.4496,-33.24365 8.5878,-56.38998 8.5878,-92.96477 0,-36.57479 -2.1382,-59.72112 -8.5878,-92.96477 -13.2973,-68.53899 -42.6781,-136.42526 -82.9677,-191.70189 C 1033.82,330.3536 992.78084,287.17029 965.17102,265.49305 886.80166,203.96302 803.11491,169.738 703.33335,158.41034 684.0525,156.22149 622.32379,156.2676 602.66668,158.48554 503.38593,169.6875 418.12976,204.84777 339.59632,266.9777 322.52397,280.4841 279.87105,323.10993 266.12294,340.4044 206.42786,415.49806 171.29503,499.87511 160.53107,594 c -3.10444,27.14665 -3.10643,78.15654 -0.004,105.33333 12.59621,110.34413 59.31639,208.69203 136.73624,287.8354 40.01535,40.90617 82.37606,71.93687 132.43917,97.01617 55.20371,27.6545 116.82296,45.4765 174.29763,50.4118 9.16667,0.7871 18.76667,1.6716 21.33333,1.9654 8.26162,0.9458 65.56751,-0.408 79.33334,-1.8741 z M 577.33335,962.66664 v -78.66666 h 78.66667 78.66667 v 78.66666 78.66666 h -78.66667 -78.66667 z m 42.18449,-160.99942 -38.48219,-0.37529 0.89595,-18.97931 c 5.10211,-108.08137 28.60174,-186.94634 68.21862,-228.94233 12.11309,-12.84052 21.5919,-19.3758 43.18313,-29.77314 28.25948,-13.60847 45.7654,-28.90955 55.21846,-48.26383 8.70514,-17.82301 9.16698,-29.65389 2.03032,-52.01085 -6.44699,-20.1964 -15.93744,-33.5338 -30.80035,-43.28528 -12.56403,-8.24319 -20.87468,-9.98472 -47.78176,-10.01283 -20.31346,-0.0212 -24.67787,0.36534 -33.72199,2.98672 -41.51051,12.0316 -69.18716,42.94804 -83.25567,93.00147 l -3.55669,12.6541 h -68.3995 -68.39949 v -3.82534 c 0,-11.07395 7.41592,-44.95631 14.86357,-67.90975 14.27407,-43.99225 34.74719,-78.39234 63.63999,-106.93157 29.92379,-29.55757 67.51285,-48.66389 110.25552,-56.04228 14.64098,-2.52737 17.81854,-2.6318 39.90759,-1.3115 129.91616,7.76525 217.83957,58.5483 243.74977,140.78567 7.29512,23.15427 11.65477,62.1569 9.04508,80.91984 -6.79295,48.83952 -43.84604,97.13531 -106.12818,138.3297 -11,7.27559 -22.1,14.63711 -24.66667,16.35894 -10.16114,6.81654 -29.81613,39.30617 -37.56988,62.10288 -9.8734,29.02866 -15.29195,101.35627 -8.72954,116.52341 l 2.16336,5 -31.59865,-0.31207 c -17.37924,-0.17164 -48.91561,-0.48095 -70.0808,-0.68736 z"
       id="path823"
       inkscape:connector-curvature="0" />
    <path
       style="fill:#ffffff;fill-opacity:1;stroke:none;stroke-width:1.33333337;stroke-opacity:1"
       d="M 617.73572,1292.0012 C 528.19016,1286.6648 445.92754,1265.4593 367.27545,1227.4379 184.04286,1138.8611 52.92062,971.11416 13.35908,774.66665 -3.7078733,689.91866 -3.9021293,605.21941 12.778065,521.33332 39.07708,389.07338 107.39181,266.97886 206.00025,175.99978 304.79551,84.848311 426.48056,26.46221 557.33335,7.4254731 620.37959,-1.7466254 693.08492,-1.4703556 754.00002,8.1727785 870.99305,26.693303 974.94386,72.623569 1066,146.02877 c 75.2501,60.66309 134.7384,135.58758 176.7383,222.59875 79.4827,164.66433 84.6303,356.03018 14.1199,524.91668 -51.1199,122.4425 -140.4292,227.6361 -253.5248,298.6163 -66.69151,41.8563 -141.3887,71.9509 -216.00005,87.0238 -54.5712,11.0244 -118.54677,15.8592 -169.59763,12.8169 z m 98.2643,-158.6454 c 83.36119,-11.1285 156.5202,-39.2788 222.95795,-85.7903 107.63713,-75.35422 181.68793,-191.55176 202.95723,-318.47211 5.2596,-31.38611 6.5944,-48.06953 6.5944,-82.42674 0,-57.6082 -7.9071,-105.57118 -26.1574,-158.66666 -56.2119,-163.53711 -198.67796,-287.8166 -369.04338,-321.93294 -35.93146,-7.19541 -57.6892,-9.25059 -98.64214,-9.31743 -39.70366,-0.0648 -52.5631,0.92187 -86.30377,6.62182 -164.6639,27.81738 -305.96976,138.87599 -371.47882,291.96188 -19.11063,44.65899 -31.29633,91.81097 -37.04223,143.33333 -2.20391,19.76201 -2.20391,76.23799 0,96 9.23258,82.78668 34.77636,153.89266 79.51072,221.33333 75.19149,113.35732 195.49803,191.58422 329.01033,213.93252 16.42798,2.7499 25.81781,3.9091 53.63711,6.6222 14.88121,1.4512 74.3182,-0.5714 94,-3.1989 z M 577.33335,962.66664 v -78.66666 h 78.66667 78.66667 v 78.66666 78.66666 h -78.66667 -78.66667 z m 46.23213,-160.99945 -42.43453,-0.37161 0.8304,-16.98113 c 2.21878,-45.37347 6.26369,-78.72655 13.54009,-111.6478 17.12335,-77.47257 49.72399,-128.67005 93.42439,-146.71774 17.13887,-7.07814 29.73112,-15.3798 42.39384,-27.94892 16.3748,-16.25378 24.69944,-32.88218 24.671,-49.28013 -0.0303,-17.45935 -11.29285,-44.93368 -23.979,-58.4952 -14.54727,-15.55108 -29.43925,-20.82779 -58.89436,-20.86819 -34.37529,-0.0471 -58.43527,8.68933 -80.02852,29.05931 -18.78411,17.71997 -31.46584,41.09897 -39.73427,73.25087 l -1.45729,5.66667 h -68.61527 c -66.19736,0 -68.61528,-0.0881 -68.61528,-2.49956 0,-6.08517 5.93905,-36.58933 10.02996,-51.51585 26.18498,-95.54139 84.26893,-157.53773 165.30338,-176.43782 21.07286,-4.91494 29.38992,-5.57436 52.80622,-4.1868 101.14471,5.99346 179.09706,38.89193 219.53872,92.65258 14.00784,18.62116 25.76266,45.92632 30.26156,70.29425 3.39102,18.36718 4.9937,46.65182 3.33828,58.91451 -6.87767,50.94648 -47.53567,101.47826 -117.24657,145.71989 -13.99724,8.88326 -17.69174,11.97082 -23.68273,19.792 -16.08341,20.99677 -27.39815,45.36576 -32.16117,69.2668 -6.71403,33.69117 -8.78013,86.87034 -3.8204,98.33333 l 2.16336,5 -27.59865,-0.31392 c -15.17924,-0.17267 -46.69416,-0.48115 -70.03316,-0.68554 z"
       id="path821"
       inkscape:connector-curvature="0" />
    <path
       style="fill:#ffffff;fill-opacity:1;stroke:none;stroke-width:1.33333337;stroke-opacity:1"
       d="M 620.66668,1291.9984 C 485.87912,1284.6917 361.36154,1239.3013 255.50174,1158.8847 210.79663,1124.9244 163.91267,1077.988 130.75667,1034 77.832917,963.78616 40.01828,884.69378 19.414768,801.11934 -9.6632741,683.16948 -5.0645904,559.91791 32.667018,445.93936 58.301937,368.50214 97.39789,298.39491 150.857,233.99999 166.17763,215.54533 205.47247,175.80098 224.4811,159.53372 373.61089,31.91091 566.48032,-22.030407 761.33335,9.3879988 878.42522,28.268074 989.58151,80.284666 1082.1856,159.53372 c 19.0086,16.26726 58.3035,56.01161 73.6241,74.46627 63.941,77.02107 108.2145,163.99485 131.4422,258.21397 25.268,102.49485 25.268,206.41053 0,308.90538 -23.1971,94.0948 -67.5855,181.29453 -131.4422,258.21396 -15.3206,18.4547 -54.6155,58.199 -73.6241,74.4663 -105.34258,90.1504 -232.72031,144.0832 -368.61258,156.0737 -29.27612,2.5831 -68.0818,3.4708 -92.90634,2.1251 z m 96.09446,-158.5631 c 165.57571,-22.1938 305.32626,-120.5586 379.95556,-267.43532 25.9034,-50.97988 42.4158,-105.91269 49.4977,-164.66666 3.2235,-26.74374 3.2235,-82.5896 0,-109.33334 C 1130.2749,459.75997 1064.0827,342.28568 959.67817,260.94553 887.85301,204.98751 805.4063,171.18154 711.33335,159.11564 c -14.38532,-1.84508 -27.84097,-2.3864 -58.66667,-2.36012 -43.32972,0.0369 -63.37904,1.90037 -99.76272,9.27225 -112.38712,22.77131 -216.2985,86.11669 -287.65675,175.35837 -58.44674,73.09433 -93.38171,156.65218 -104.77997,250.61384 -3.25153,26.80403 -3.24944,82.55947 0.004,109.33334 7.26207,59.76082 23.30687,113.15851 49.47862,164.66666 39.17212,77.09398 95.40703,140.24242 167.38339,187.96152 72.95857,48.3703 152.06074,75.3516 242.00001,82.5449 17.85406,1.428 78.00916,-0.4683 97.42778,-3.0711 z M 577.33335,962.66664 v -78.66666 h 78.66667 78.66667 v 78.66666 78.66666 h -78.66667 -78.66667 z m 50.33333,-160.99939 c -34.60482,-0.28407 -45.01701,-0.75032 -45.07364,-2.01834 -1.83608,-41.10984 6.7894,-108.66081 19.47132,-152.49087 19.23092,-66.46415 48.10823,-105.50432 90.92948,-122.93056 21.26428,-8.65356 45.59818,-29.29651 54.63126,-46.34481 8.57435,-16.18255 10.15351,-29.12405 5.69472,-46.6694 -6.39681,-25.17147 -20.81639,-45.4414 -38.6853,-54.38085 -12.4291,-6.21803 -23.98529,-7.93979 -48.51418,-7.22816 -18.78396,0.54494 -21.02404,0.89633 -33.72674,5.29046 -17.25604,5.96922 -26.11682,11.29386 -39.2663,23.59599 -19.39263,18.14295 -31.21854,39.9006 -39.77323,73.17594 l -1.45684,5.66667 h -68.61527 c -54.00348,0 -68.61523,-0.35492 -68.61502,-1.66667 7.9e-4,-5.00406 5.78403,-35.89889 9.186,-49.07283 5.60238,-21.69483 12.1425,-39.13316 22.72527,-60.59383 32.89276,-66.70284 82.85766,-106.7163 150.75514,-120.72945 12.57553,-2.59543 16.71327,-2.81372 40.66667,-2.14543 41.20694,1.14966 76.83161,7.25938 114.4844,19.63436 37.21764,12.23196 66.67444,28.97442 89.8674,51.0782 34.00444,32.40755 49.42388,67.30181 53.52318,121.12315 1.68276,22.09374 0.33753,35.2181 -5.3774,52.46325 -13.30659,40.15345 -49.64067,81.77912 -100.74941,115.42225 -8.20516,5.40118 -17.80516,11.62033 -21.33333,13.82033 -13.6324,8.50053 -34.95487,43.30705 -42.47359,69.33333 -4.91428,17.01094 -8.59816,46.50899 -9.49132,76 -0.69384,22.91017 -0.51679,26.06665 1.85115,33 l 2.61837,7.66667 -24.1264,-0.31499 c -13.26951,-0.17325 -44.37639,-0.48124 -69.12639,-0.68441 z"
       id="path819"
       inkscape:connector-curvature="0" />
  </g>
</svg>
