<?xml version="1.0" encoding="UTF-8" standalone="no"?>
<!-- Created with Inkscape (http://www.inkscape.org/) -->

<svg
   xmlns:dc="http://purl.org/dc/elements/1.1/"
   xmlns:cc="http://creativecommons.org/ns#"
   xmlns:rdf="http://www.w3.org/1999/02/22-rdf-syntax-ns#"
   xmlns:svg="http://www.w3.org/2000/svg"
   xmlns="http://www.w3.org/2000/svg"
   xmlns:sodipodi="http://sodipodi.sourceforge.net/DTD/sodipodi-0.dtd"
   xmlns:inkscape="http://www.inkscape.org/namespaces/inkscape"
   version="1.1"
   id="svg2"
   width="404.02884"
   height="402.7933"
   viewBox="0 0 404.02884 402.7933"
   sodipodi:docname="filters.svg"
   inkscape:version="0.92.4 (5da689c313, 2019-01-14)">
  <metadata
     id="metadata8">
    <rdf:RDF>
      <cc:Work
         rdf:about="">
        <dc:format>image/svg+xml</dc:format>
        <dc:type
           rdf:resource="http://purl.org/dc/dcmitype/StillImage" />
        <dc:title></dc:title>
      </cc:Work>
    </rdf:RDF>
  </metadata>
  <defs
     id="defs6" />
  <sodipodi:namedview
     pagecolor="#ffffff"
     bordercolor="#666666"
     borderopacity="1"
     objecttolerance="10"
     gridtolerance="10"
     guidetolerance="10"
     inkscape:pageopacity="0"
     inkscape:pageshadow="2"
     inkscape:window-width="1366"
     inkscape:window-height="705"
     id="namedview4"
     showgrid="false"
     fit-margin-top="0"
     fit-margin-left="0"
     fit-margin-right="0"
     fit-margin-bottom="0"
     inkscape:zoom="0.4609375"
     inkscape:cx="199.8034"
     inkscape:cy="206.61957"
     inkscape:window-x="-8"
     inkscape:window-y="-8"
     inkscape:window-maximized="1"
     inkscape:current-layer="svg2" />
  <g
     id="g817"
     transform="translate(-54.027111,-72.843209)"
     style="fill:#ffffff;fill-opacity:1">
    <path
       style="fill:#ffffff;fill-opacity:1"
       d="m 285.5,474.13974 c -4.9565,-2.38639 -81.90267,-79.342 -83.4446,-83.45484 C 201.35111,388.80634 201,364.18688 201,316.68228 V 245.49476 L 129.39851,173.99738 C 59.108097,103.80916 54.07561,98.367616 54.027539,92.5 53.970911,85.587819 59.54403,76.924117 65.702258,74.351044 c 4.811677,-2.010446 375.783812,-2.010446 380.595482,0 4.54286,1.898127 9.11616,7.483951 10.6694,13.031601 2.75262,9.831368 6.4262,5.554435 -73.54727,85.626585 L 311,245.51845 310.98355,354.00923 310.9671,462.5 l -2.26377,3.99716 c -4.31237,7.61439 -15.56435,11.3205 -23.20333,7.64258 z"
       id="path833"
       inkscape:connector-curvature="0" />
    <path
       style="fill:#ffffff;fill-opacity:1"
       d="M 286.55585,474.55243 C 283.55668,473.44965 273.29808,463.8059 243.73822,434.30109 222.3578,412.96049 203.99516,393.83043 202.93236,391.78984 201.07532,388.2243 201,385.30142 201,316.8056 V 245.53153 L 128.57918,173.01577 C 63.612477,107.96389 56.041708,100.0566 55.025047,96.192115 52.814803,87.790631 58.271825,77.093767 66.3151,74.061334 c 3.953943,-1.490695 375.41586,-1.490695 379.3698,0 8.04328,3.032433 13.5003,13.729297 11.29005,22.130781 -1.01666,3.864485 -8.58743,11.771775 -73.55413,76.823655 L 311,245.53153 v 107.91851 c 0,107.5231 -0.008,107.93438 -2.09605,112.24837 -3.72006,7.68462 -14.21754,11.84358 -22.3481,8.85402 z"
       id="path831"
       inkscape:connector-curvature="0" />
    <path
       style="fill:#ffffff;fill-opacity:1"
       d="m 290.5,475.50626 c -0.55,-0.18222 -2.35,-0.6243 -4,-0.98239 -4.05202,-0.87938 -80.83665,-77.14855 -83.58498,-83.02387 -1.77231,-3.78881 -1.87226,-7.74783 -1.89306,-74.98423 L 201,245.53153 128.58573,173.01577 C 49.360425,93.679422 52.978247,97.862712 55.087137,88.029295 56.281951,82.45807 61.045415,76.296798 65.643088,74.375767 68.397923,73.224724 99.475775,73 255.90278,73 c 130.00284,0 187.82471,0.32497 189.78212,1.066612 9.5561,3.62071 14.69657,17.796707 9.47471,26.128658 -1.13915,1.8176 -34.04107,35.25354 -73.11539,74.30209 L 311,245.49472 v 107.68754 c 0,73.65464 -0.33614,108.57721 -1.06362,110.50264 -1.28331,3.39656 -5.51438,8.02267 -8.93638,9.77073 -2.70256,1.38054 -8.88073,2.58713 -10.5,2.05063 z"
       id="path829"
       inkscape:connector-curvature="0" />
    <path
       style="fill:#ffffff;fill-opacity:1"
       d="m 284.5,473.44891 c -4.93289,-2.53019 -79.4306,-77.36445 -81.58037,-81.94891 -1.77842,-3.79254 -1.87685,-7.68258 -1.89767,-75.00272 L 201,245.49457 131.90257,176.49728 C 93.898991,138.54878 61.048991,105.32209 58.902575,102.6602 55.435204,98.360125 55,97.212632 55,92.370364 55,85.647476 57.620878,80.153719 62.662823,76.307932 L 66.344107,73.5 253.42205,73.20468 c 127.9562,-0.20199 188.22026,0.0349 190.69255,0.749575 10.00583,2.892447 15.61856,14.625971 11.8299,24.730645 -0.58513,1.56059 -33.11658,34.90799 -73,74.83097 L 311,245.53174 310.994,352.51587 c -0.003,67.12625 -0.37241,108.30461 -0.99022,110.52849 -1.11701,4.0208 -6.13258,9.31585 -10.3193,10.89431 -4.07757,1.5373 -11.71305,1.29103 -15.1849,-0.48976 z"
       id="path827"
       inkscape:connector-curvature="0" />
    <path
       style="fill:#ffffff;fill-opacity:1"
       d="m 284.45918,473.45364 c -4.89971,-2.4183 -80.10673,-78.32033 -81.91451,-82.67152 C 201.20099,387.54801 201,377.78856 201,315.7795 V 244.49476 L 129.43557,172.99738 C 90.075129,133.67382 57.225129,100.28485 56.435567,98.79966 53.652476,93.56459 55.291939,83.708805 59.788138,78.645368 60.729662,77.585061 63.3,75.890975 65.5,74.880731 c 3.835494,-1.761265 11.661145,-1.83771 190.28212,-1.858769 200.42239,-0.02363 189.88935,-0.280323 195.57251,4.766176 4.94627,4.392155 7.16306,15.456368 4.2098,21.011522 -0.78956,1.48519 -33.63956,34.87416 -73,74.19772 L 311,244.49476 310.994,351.99738 c -0.003,67.46652 -0.37228,108.82261 -0.99022,111.04698 -1.11701,4.0208 -6.13258,9.31585 -10.3193,10.89431 -4.01772,1.51474 -11.66774,1.27104 -15.22572,-0.48503 z"
       id="path825"
       inkscape:connector-curvature="0" />
    <path
       style="fill:#ffffff;fill-opacity:1"
       d="m 284,473.08707 c -1.925,-1.06503 -20.89502,-19.40781 -42.15561,-40.76174 -32.60107,-32.74422 -38.82614,-39.45184 -39.74442,-42.82533 -0.73671,-2.70646 -1.09062,-26.79956 -1.09439,-74.50262 L 201,244.49476 129.43557,172.99738 C 90.075129,133.67382 57.225129,100.28485 56.435567,98.79966 53.440734,93.166298 55.704754,82.17891 60.792573,77.654919 66.123228,72.915004 58.738218,73.087786 256,73.087786 c 197.26178,0 189.87677,-0.172782 195.20743,4.567133 4.82753,4.29255 7.34796,15.398778 4.68873,20.660822 C 455.28905,99.517084 422.44468,132.9 382.90866,172.5 l -71.88366,72 -0.2625,109 c -0.29337,121.81997 0.30144,112.2985 -7.38149,118.15856 -4.80752,3.66687 -14.09759,4.35161 -19.38101,1.42851 z"
       id="path823"
       inkscape:connector-curvature="0" />
    <path
       style="fill:#ffffff;fill-opacity:1"
       d="m 282.94578,472.12347 c -2.44518,-1.58209 -21.36741,-19.91959 -42.0494,-40.75 -34.81663,-35.06648 -37.68859,-38.22128 -38.75,-42.56629 C 201.34031,385.50746 201,363.39424 201,314.31641 V 244.51845 L 128.55898,172.00923 C 78.507261,121.91038 55.90708,98.631666 55.435638,96.690488 53.572157,89.017525 57.769515,78.816005 64.245734,75.277886 67.331904,73.591835 77.236808,73.5 256,73.5 c 178.76319,0 188.6681,0.09184 191.75427,1.777886 6.47621,3.538119 10.67357,13.739639 8.81009,21.412602 -0.47144,1.941178 -23.07162,25.219892 -73.12334,75.318742 L 311,244.51845 310.9561,352.00923 c -0.0465,113.89858 0.0268,112.03503 -4.61103,117.16338 -5.73221,6.33843 -16.13593,7.65044 -23.3993,2.95086 z"
       id="path821"
       inkscape:connector-curvature="0" />
    <path
       style="fill:#ffffff;fill-opacity:1"
       d="m 285.5,473.56371 c -1.65,-0.74691 -20.84899,-19.2918 -42.66443,-41.21086 -33.53749,-33.69681 -39.83125,-40.47073 -40.74442,-43.85285 -0.72468,-2.68403 -1.08183,-27.03039 -1.08557,-74.00262 L 201,244.49476 129.43557,172.99738 C 90.075129,133.67382 57.225129,100.28485 56.435567,98.79966 52.828054,92.01383 56.20767,80.876253 63.298119,76.184016 L 67.353942,73.5 H 256 444.64606 l 4.02068,2.660762 c 6.01626,3.981369 9.25007,12.000892 7.88495,19.553869 -0.60877,3.36823 -8.66621,11.775729 -73.11793,76.294599 L 311,244.51845 310.9761,351.00923 c -0.0135,60.31452 -0.41834,108.19168 -0.93361,110.41338 -1.25167,5.39677 -3.87624,8.6771 -9.06296,11.32739 -4.96463,2.5368 -10.97509,2.85275 -15.47957,0.81371 z"
       id="path819"
       inkscape:connector-curvature="0" />
  </g>
</svg>
