<?xml version="1.0" encoding="UTF-8" standalone="no"?>
<svg
   xmlns:dc="http://purl.org/dc/elements/1.1/"
   xmlns:cc="http://creativecommons.org/ns#"
   xmlns:rdf="http://www.w3.org/1999/02/22-rdf-syntax-ns#"
   xmlns:svg="http://www.w3.org/2000/svg"
   xmlns="http://www.w3.org/2000/svg"
   xmlns:sodipodi="http://sodipodi.sourceforge.net/DTD/sodipodi-0.dtd"
   xmlns:inkscape="http://www.inkscape.org/namespaces/inkscape"
   version="1.0"
   width="1234.3473pt"
   height="1242.5798pt"
   viewBox="0 0 1234.3473 1242.5799"
   preserveAspectRatio="xMidYMid meet"
   id="svg8"
   sodipodi:docname="js.svg"
   inkscape:version="0.92.4 (5da689c313, 2019-01-14)">
  <metadata
     id="metadata14">
    <rdf:RDF>
      <cc:Work
         rdf:about="">
        <dc:format>image/svg+xml</dc:format>
        <dc:type
           rdf:resource="http://purl.org/dc/dcmitype/StillImage" />
        <dc:title />
      </cc:Work>
    </rdf:RDF>
  </metadata>
  <defs
     id="defs12" />
  <sodipodi:namedview
     pagecolor="#ffffff"
     bordercolor="#666666"
     borderopacity="1"
     objecttolerance="10"
     gridtolerance="10"
     guidetolerance="10"
     inkscape:pageopacity="0"
     inkscape:pageshadow="2"
     inkscape:window-width="1366"
     inkscape:window-height="705"
     id="namedview10"
     showgrid="false"
     inkscape:zoom="0.18220149"
     inkscape:cx="367.6459"
     inkscape:cy="836.50075"
     inkscape:window-x="-8"
     inkscape:window-y="-8"
     inkscape:window-maximized="1"
     inkscape:current-layer="svg8"
     fit-margin-top="0"
     fit-margin-left="0"
     fit-margin-right="0"
     fit-margin-bottom="0" />
  <g
     id="g840">
    <rect
       y="3.465481"
       x="3.4654815"
       height="1235.6489"
       width="1227.4164"
       id="rect819"
       style="opacity:1;fill:#000002;fill-opacity:0;stroke:none;stroke-width:6.93096304;stroke-miterlimit:4;stroke-dasharray:none;stroke-opacity:1" />
    <g
       style="fill:#ffffff;stroke:#ffffff;stroke-width:117.99749756;stroke-miterlimit:4;stroke-dasharray:none;stroke-opacity:1"
       inkscape:export-ydpi="96"
       inkscape:export-xdpi="96"
       id="g6"
       transform="matrix(0.1,0,0,-0.1,94.126198,1127.2043)">
      <path
         style="fill:#ffffff;stroke:#ffffff;stroke-width:117.99749756;stroke-miterlimit:4;stroke-dasharray:none;stroke-opacity:1"
         id="path2"
         d="m 7666,5588 c -387,-23 -717,-164 -957,-409 -170,-173 -274,-380 -314,-627 -26,-153 -16,-446 18,-593 80,-339 271,-596 612,-821 138,-91 315,-180 670,-336 421,-184 546,-254 642,-355 91,-96 128,-200 121,-337 -7,-112 -39,-181 -123,-265 -136,-136 -346,-194 -624,-173 -318,24 -554,166 -771,463 -40,55 -74,101 -75,103 -3,4 -584,-328 -693,-397 -59,-36 -76,-52 -74,-67 5,-25 82,-149 156,-249 81,-110 252,-276 366,-357 239,-169 543,-285 873,-333 128,-18 499,-21 634,-5 381,47 705,190 931,412 196,192 305,408 348,693 21,137 14,423 -14,550 -99,445 -362,737 -913,1015 -97,49 -294,141 -436,204 -411,181 -516,239 -605,334 -124,132 -153,332 -73,493 35,69 139,161 216,190 57,21 80,24 209,24 156,0 209,-11 300,-63 65,-36 184,-154 247,-244 30,-43 60,-78 67,-78 7,0 83,45 169,99 302,193 532,344 549,360 17,15 15,21 -39,101 -226,339 -483,529 -838,618 -167,42 -388,61 -579,50 z"
         inkscape:connector-curvature="0" />
      <path
         style="fill:#ffffff;stroke:#ffffff;stroke-width:117.99749756;stroke-miterlimit:4;stroke-dasharray:none;stroke-opacity:1"
         id="path4"
         d="m 4606,5509 c -3,-17 -6,-791 -6,-1719 V 2102 l -26,-88 c -14,-49 -37,-110 -52,-137 -36,-68 -120,-141 -190,-167 -85,-32 -216,-46 -315,-32 -203,27 -323,120 -479,369 -63,101 -72,112 -90,102 -20,-11 -697,-420 -736,-445 l -22,-14 34,-68 c 166,-329 483,-604 831,-720 425,-141 969,-111 1335,73 336,170 537,449 635,886 27,117 33,535 34,2182 l 1,1497 h -474 -473 z"
         inkscape:connector-curvature="0" />
    </g>
  </g>
</svg>
