<?xml version="1.0" encoding="UTF-8" standalone="no"?>
<!-- Created with Inkscape (http://www.inkscape.org/) -->

<svg
   xmlns:dc="http://purl.org/dc/elements/1.1/"
   xmlns:cc="http://creativecommons.org/ns#"
   xmlns:rdf="http://www.w3.org/1999/02/22-rdf-syntax-ns#"
   xmlns:svg="http://www.w3.org/2000/svg"
   xmlns="http://www.w3.org/2000/svg"
   xmlns:sodipodi="http://sodipodi.sourceforge.net/DTD/sodipodi-0.dtd"
   xmlns:inkscape="http://www.inkscape.org/namespaces/inkscape"
   version="1.1"
   id="svg2"
   width="612"
   height="578"
   viewBox="0 0 612 578"
   sodipodi:docname="menu-icon.svg"
   inkscape:version="0.92.4 (5da689c313, 2019-01-14)">
  <metadata
     id="metadata8">
    <rdf:RDF>
      <cc:Work
         rdf:about="">
        <dc:format>image/svg+xml</dc:format>
        <dc:type
           rdf:resource="http://purl.org/dc/dcmitype/StillImage" />
        <dc:title></dc:title>
      </cc:Work>
    </rdf:RDF>
  </metadata>
  <defs
     id="defs6" />
  <sodipodi:namedview
     pagecolor="#ffffff"
     bordercolor="#666666"
     borderopacity="1"
     objecttolerance="10"
     gridtolerance="10"
     guidetolerance="10"
     inkscape:pageopacity="0"
     inkscape:pageshadow="2"
     inkscape:window-width="1366"
     inkscape:window-height="705"
     id="namedview4"
     showgrid="false"
     inkscape:zoom="0.4083045"
     inkscape:cx="306"
     inkscape:cy="289"
     inkscape:window-x="-8"
     inkscape:window-y="-8"
     inkscape:window-maximized="1"
     inkscape:current-layer="svg2" />
  <path
     style="fill:#ff4500;fill-opacity:1"
     d="m 59.898302,542.97226 c -20.12548,-3.60528 -34.23602,-18.35369 -37.23303,-38.91616 -3.57836,-24.55109 9.22734,-46.28429 31.32399,-53.16154 C 59.895402,449.05636 67.538262,449 310.8983,449 c 243.36005,0 251.0029,0.0564 256.90904,1.89456 22.09665,6.87725 34.90235,28.61045 31.32399,53.16154 -2.59984,17.83751 -13.03069,30.75096 -30.12688,37.29725 l -5.60615,2.14665 -249.5,0.1392 c -137.225,0.0765 -251.524998,-0.22357 -253.999998,-0.66694 z m -3.5,-209.38329 c -26.03665,-6.46199 -40.52497,-34.58911 -32.05901,-62.23823 3.66732,-11.97719 14.60488,-23.39655 27.33425,-28.53833 L 57.398302,240.5 h 253.499998 253.5 l 5.72477,2.31241 c 12.72936,5.14178 23.66692,16.56114 27.33425,28.53833 2.1786,7.11514 2.88193,18.98611 1.54709,26.11228 -3.38638,18.07854 -17.39714,32.69395 -34.90533,36.41172 -8.02543,1.70416 -500.800528,1.42679 -507.700778,-0.28577 z m -0.88226,-208.6964 c -16.39827,-3.87026 -30.30152,-20.10898 -32.94861,-38.483331 -3.0993,-21.51326 6.68518,-41.0386 25.13435,-50.15667 l 7.5928,-3.75257 H 310.8983 566.50203 l 7.59279,3.75257 c 13.8936,6.86658 22.77802,19.19579 25.04614,34.75737 3.22369,22.11775 -6.99886,42.295461 -25.98413,51.288611 l -6.75853,3.20145 -253.5,0.15442 c -150.66247,0.0918 -255.074918,-0.21728 -257.382258,-0.76185 z"
     id="path817"
     inkscape:connector-curvature="0" />
</svg>
